<svg xmlns="http://www.w3.org/2000/svg" version="1.1" xmlns:xlink="http://www.w3.org/1999/xlink" xmlns:svgjs="http://svgjs.dev/svgjs" width="1000" height="1222" viewBox="0 0 1000 1222"><g transform="matrix(1,0,0,1,0.7842591557945298,0.49475114746280724)"><svg viewBox="0 0 202 247" data-background-color="#0080ff" preserveAspectRatio="xMidYMid meet" height="1222" width="1000" xmlns="http://www.w3.org/2000/svg" xmlns:xlink="http://www.w3.org/1999/xlink"><g id="tight-bounds" transform="matrix(1,0,0,1,-0.15841956736935003,-0.0999971084915785)"><svg viewBox="0 0 202.3168399168399 247.2" height="247.2" width="202.3168399168399"><g><svg viewBox="0 0 202.3168399168399 247.2" height="247.2" width="202.3168399168399"><g><svg viewBox="0 0 202.3168399168399 247.2" height="247.2" width="202.3168399168399"><g id="textblocktransform"><svg viewBox="0 0 202.3168399168399 247.2" height="247.2" width="202.3168399168399" id="textblock"><g><svg viewBox="0 0 202.3168399168399 247.2" height="247.2" width="202.3168399168399"><g transform="matrix(1,0,0,1,0,0)"><svg width="202.3168399168399" viewBox="-1.7499995231628418 -33.94999694824219 123.35001373291016 130.4499969482422" height="247.2" data-palette-color="#010c80"><svg></svg><svg></svg><svg></svg><g class="wordmark-text-0" data-fill-palette-color="primary" id="text-0"><path xmlns="http://www.w3.org/2000/svg" d="M9.45-33.85v32.6c0 2-0.273 3.677-0.82 5.03-0.553 1.347-1.253 2.487-2.1 3.42-0.853 0.933-1.803 1.7-2.85 2.3-1.053 0.6-2.08 1.15-3.08 1.65v0l-2.35-3.95c1.3-0.633 2.31-1.307 3.03-2.02 0.713-0.72 1.237-1.42 1.57-2.1 0.333-0.687 0.527-1.347 0.58-1.98 0.047-0.633 0.07-1.217 0.07-1.75v0-33.2zM15.95-33.85h5.9v20.95c0 3.1 0.65 5.307 1.95 6.62 1.3 1.32 3.067 1.98 5.3 1.98v0c2.267 0 3.943-0.76 5.03-2.28 1.08-1.513 1.62-3.62 1.62-6.32v0-20.95h5.95v21.4c0 1.733-0.223 3.367-0.67 4.9-0.453 1.533-1.197 2.883-2.23 4.05-1.033 1.167-2.4 2.09-4.1 2.77-1.7 0.687-3.783 1.03-6.25 1.03v0c-2.367 0-4.34-0.343-5.92-1.03-1.587-0.68-2.87-1.603-3.85-2.77-0.987-1.167-1.687-2.517-2.1-4.05-0.42-1.533-0.63-3.167-0.63-4.9v0zM68.35-16.15l-0.15-17.7h5.95v33.9h-4.95l-11.4-17.8c-0.633-0.967-1.323-2.06-2.07-3.28-0.753-1.213-1.463-2.337-2.13-3.37v0c0.1 1.067 0.193 2.183 0.28 3.35 0.08 1.167 0.12 2.283 0.12 3.35v0l0.15 17.7h-5.95v-33.95h4.65l11.75 17.6c0.667 0.967 1.343 1.99 2.03 3.07 0.68 1.087 1.353 2.13 2.02 3.13v0c-0.067-1.067-0.133-2.143-0.2-3.23-0.067-1.08-0.1-2.003-0.1-2.77z" fill="#010c80" fill-rule="nonzero" stroke="none" stroke-width="1" stroke-linecap="butt" stroke-linejoin="miter" stroke-miterlimit="10" stroke-dasharray="" stroke-dashoffset="0" font-family="none" font-weight="none" font-size="none" text-anchor="none" style="mix-blend-mode: normal" data-fill-palette-color="primary" opacity="1"></path><path xmlns="http://www.w3.org/2000/svg" d="M23.4 48.1v-15.4h-13.95v15.4h-5.95v-33.85h5.95v14.1h13.95v-14.1h5.95v33.85zM43.35 48.1v-12.95l-10.5-20.9h6.45l7.1 15.35 7.25-15.35h6.3l-10.65 21.15v12.7zM62.95 14.25h5.9v20.95c0 3.1 0.65 5.307 1.95 6.62 1.3 1.32 3.067 1.98 5.3 1.98v0c2.267 0 3.943-0.76 5.03-2.28 1.08-1.513 1.62-3.62 1.62-6.32v0-20.95h5.95v21.4c0 1.733-0.223 3.367-0.67 4.9-0.453 1.533-1.197 2.883-2.23 4.05-1.033 1.167-2.4 2.09-4.1 2.77-1.7 0.687-3.783 1.03-6.25 1.03v0c-2.367 0-4.34-0.343-5.92-1.03-1.587-0.68-2.873-1.603-3.86-2.77-0.98-1.167-1.677-2.517-2.09-4.05-0.42-1.533-0.63-3.167-0.63-4.9v0zM95.2 48.1v-33.85h5.95v33.85zM118.65 14.25c-0.533 2.5-1.123 4.623-1.77 6.37-0.653 1.753-1.363 3.237-2.13 4.45-0.767 1.22-1.607 2.253-2.52 3.1-0.92 0.853-1.897 1.63-2.93 2.33v0l12.3 17.6h-6.9l-12.9-18.3v-0.35c3.067-1.133 5.443-2.993 7.13-5.58 1.68-2.58 2.97-5.787 3.87-9.62v0z" fill="#77d4fc" fill-rule="nonzero" stroke="none" stroke-width="1" stroke-linecap="butt" stroke-linejoin="miter" stroke-miterlimit="10" stroke-dasharray="" stroke-dashoffset="0" font-family="none" font-weight="none" font-size="none" text-anchor="none" style="mix-blend-mode: normal" data-fill-palette-color="secondary" opacity="1"></path><path xmlns="http://www.w3.org/2000/svg" d="M25.15 65.5l-3.05 3.65c-0.8-0.867-1.64-1.527-2.52-1.98-0.887-0.447-1.913-0.67-3.08-0.67v0c-1.433 0-2.64 0.323-3.62 0.97-0.987 0.653-1.78 1.553-2.38 2.7-0.6 1.153-1.033 2.497-1.3 4.03-0.267 1.533-0.4 3.183-0.4 4.95v0c0 1.767 0.127 3.417 0.38 4.95 0.247 1.533 0.68 2.883 1.3 4.05 0.613 1.167 1.447 2.083 2.5 2.75 1.047 0.667 2.37 1 3.97 1v0c0.767 0 1.5-0.067 2.2-0.2 0.7-0.133 1.343-0.277 1.93-0.43 0.58-0.147 1.063-0.287 1.45-0.42 0.38-0.133 0.62-0.217 0.72-0.25v0l1.4 4.2-0.65 0.25c-0.433 0.167-1.04 0.357-1.82 0.57-0.787 0.22-1.72 0.423-2.8 0.61-1.087 0.18-2.28 0.27-3.58 0.27v0c-4.467 0-7.823-1.427-10.07-4.28-2.253-2.847-3.38-7.02-3.38-12.52v0c0-2.633 0.3-5.043 0.9-7.23 0.6-2.18 1.51-4.053 2.73-5.62 1.213-1.567 2.747-2.783 4.6-3.65 1.847-0.867 4.02-1.3 6.52-1.3v0c2 0 3.643 0.367 4.93 1.1 1.28 0.733 2.32 1.567 3.12 2.5zM49.55 96.2v-15.4h-13.95v15.4h-5.95v-33.85h5.95v14.1h13.95v-14.1h5.95v33.85zM76.05 61.9c2.5 0 4.633 0.4 6.4 1.2 1.767 0.8 3.227 1.933 4.38 3.4 1.147 1.467 1.987 3.257 2.52 5.37 0.533 2.12 0.8 4.497 0.8 7.13v0c0 2.6-0.29 4.973-0.87 7.12-0.587 2.153-1.487 3.997-2.7 5.53-1.22 1.533-2.757 2.723-4.61 3.57-1.847 0.853-4.037 1.28-6.57 1.28v0c-2.5 0-4.643-0.377-6.43-1.13-1.78-0.747-3.243-1.847-4.39-3.3-1.153-1.447-1.997-3.203-2.53-5.27-0.533-2.067-0.8-4.433-0.8-7.1v0c0-2.6 0.293-4.993 0.88-7.18 0.58-2.18 1.48-4.063 2.7-5.65 1.213-1.58 2.753-2.803 4.62-3.67 1.867-0.867 4.067-1.3 6.6-1.3zM75.35 66.5c-1.467 0-2.683 0.323-3.65 0.97-0.967 0.653-1.75 1.547-2.35 2.68-0.6 1.133-1.023 2.467-1.27 4-0.253 1.533-0.38 3.2-0.38 5v0c0 1.7 0.117 3.317 0.35 4.85 0.233 1.533 0.66 2.883 1.28 4.05 0.613 1.167 1.463 2.1 2.55 2.8 1.08 0.7 2.487 1.05 4.22 1.05v0c1.433 0 2.64-0.317 3.62-0.95 0.987-0.633 1.78-1.5 2.38-2.6 0.6-1.1 1.027-2.41 1.28-3.93 0.247-1.513 0.37-3.153 0.37-4.92v0c0-1.7-0.117-3.333-0.35-4.9-0.233-1.567-0.657-2.95-1.27-4.15-0.62-1.2-1.47-2.16-2.55-2.88-1.087-0.713-2.497-1.07-4.23-1.07z" fill="#010c80" fill-rule="nonzero" stroke="none" stroke-width="1" stroke-linecap="butt" stroke-linejoin="miter" stroke-miterlimit="10" stroke-dasharray="" stroke-dashoffset="0" font-family="none" font-weight="none" font-size="none" text-anchor="none" style="mix-blend-mode: normal" data-fill-palette-color="primary" opacity="1"></path></g></svg></g></svg></g></svg></g></svg></g></svg></g><defs></defs></svg><rect width="202.3168399168399" height="247.2" fill="none" stroke="none" visibility="hidden"></rect></g></svg></g></svg>